<?xml version="1.0" standalone="no"?>
<!DOCTYPE svg PUBLIC "-//W3C//DTD SVG 20010904//EN"
 "http://www.w3.org/TR/2001/REC-SVG-20010904/DTD/svg10.dtd">
<svg version="1.0" xmlns="http://www.w3.org/2000/svg"
 width="512.000000pt" height="512.000000pt" viewBox="0 0 512.000000 512.000000"
 preserveAspectRatio="xMidYMid meet">

<g transform="translate(0.000000,512.000000) scale(0.100000,-0.100000)"
fill="#000000" stroke="none">
<path d="M86 5097 c-21 -12 -47 -38 -58 -57 -18 -34 -18 -102 -16 -2140 l3
-2105 22 -78 c98 -345 350 -595 693 -689 l85 -23 1795 0 1795 0 88 28 c293 91
493 292 584 584 l28 88 3 637 c3 627 3 638 -18 677 -35 70 -124 100 -192 65
-17 -9 -105 -68 -195 -131 -89 -63 -169 -113 -176 -110 -6 2 -83 54 -169 115
-195 138 -210 146 -264 139 -34 -3 -74 -27 -207 -121 -91 -64 -168 -116 -171
-116 -3 0 -6 707 -6 1570 0 1555 0 1571 -20 1610 -23 45 -81 80 -132 80 -42 0
-78 -21 -263 -154 -82 -58 -157 -105 -165 -103 -8 2 -86 54 -172 115 -195 138
-210 146 -264 139 -34 -3 -76 -28 -223 -132 -100 -70 -187 -125 -194 -122 -7
2 -83 54 -169 115 -195 138 -210 146 -264 139 -34 -3 -76 -28 -223 -132 -100
-70 -187 -125 -194 -122 -8 3 -83 54 -168 115 -192 136 -210 146 -265 139 -35
-4 -75 -27 -216 -127 -95 -67 -179 -125 -186 -127 -6 -3 -86 47 -175 110 -90
63 -178 122 -195 131 -43 22 -90 20 -136 -7z m1110 -441 c97 -69 189 -128 206
-131 57 -13 94 5 272 130 97 69 181 125 186 125 5 0 88 -56 185 -124 96 -69
189 -128 206 -131 58 -13 95 4 273 130 97 69 181 125 186 125 4 0 88 -56 186
-125 107 -76 191 -127 212 -131 52 -10 98 9 202 85 l95 69 5 -1987 5 -1986 28
-88 c32 -105 64 -170 123 -255 l43 -62 -1357 0 c-1153 0 -1368 3 -1427 15
-184 38 -361 176 -444 345 -76 156 -71 8 -69 2123 l3 1894 104 -73 c112 -79
152 -93 209 -75 21 6 111 65 202 130 91 66 170 120 177 120 7 1 92 -55 189
-123z m3099 -3020 c97 -69 190 -128 207 -131 62 -14 94 1 261 122 l48 36 -3
-464 c-4 -451 -4 -466 -26 -523 -63 -169 -187 -292 -350 -348 -95 -32 -249
-32 -344 0 -163 56 -287 179 -350 348 -21 56 -22 76 -26 441 l-3 382 33 15
c18 8 105 66 193 129 88 64 165 116 172 116 6 1 91 -55 188 -123z"/>
<path d="M2639 4435 c-33 -18 -41 -35 -48 -108 l-6 -58 -56 -23 c-74 -30 -120
-66 -162 -129 -53 -78 -70 -144 -65 -241 8 -139 61 -213 216 -298 l72 -40 0
-249 0 -249 -29 0 c-16 0 -63 18 -105 40 -82 44 -103 47 -145 26 -48 -25 -63
-83 -36 -136 20 -38 177 -117 255 -128 l55 -7 6 -60 c7 -76 15 -92 50 -110 45
-24 77 -19 115 19 31 31 34 39 34 95 0 50 3 63 18 67 121 40 231 136 284 251
40 84 50 207 25 294 -34 117 -145 225 -272 265 l-55 18 0 198 c0 158 3 198 13
198 8 0 36 -16 63 -35 63 -45 104 -46 145 -6 31 31 39 83 19 121 -19 36 -103
90 -172 111 l-68 21 0 50 c0 44 -4 54 -34 84 -37 37 -73 43 -117 19z m-49
-526 l0 -140 -31 18 c-75 44 -81 163 -11 236 14 15 29 27 34 27 4 0 8 -63 8
-141z m238 -463 c36 -19 78 -65 91 -99 18 -46 13 -126 -10 -173 -20 -42 -89
-114 -109 -114 -6 0 -10 74 -10 200 0 110 2 200 5 200 4 0 18 -6 33 -14z"/>
<path d="M688 4179 c-43 -22 -78 -81 -78 -129 0 -50 35 -107 80 -130 38 -19
58 -20 620 -20 562 0 582 1 620 20 45 23 80 80 80 130 0 50 -35 107 -80 130
-38 19 -57 20 -622 20 -561 -1 -584 -2 -620 -21z"/>
<path d="M688 3579 c-43 -22 -78 -81 -78 -129 0 -50 35 -107 80 -130 38 -19
58 -20 620 -20 562 0 582 1 620 20 45 23 80 80 80 130 0 50 -35 107 -80 130
-38 19 -57 20 -622 20 -561 -1 -584 -2 -620 -21z"/>
<path d="M688 2979 c-43 -22 -78 -81 -78 -129 0 -50 35 -107 80 -130 38 -19
58 -20 620 -20 562 0 582 1 620 20 45 23 80 80 80 130 0 50 -35 107 -80 130
-38 19 -57 20 -622 20 -561 -1 -584 -2 -620 -21z"/>
<path d="M688 2379 c-43 -22 -78 -81 -78 -129 0 -50 35 -107 80 -130 39 -20
56 -20 1170 -20 1114 0 1131 0 1170 20 45 23 80 80 80 130 0 50 -35 107 -80
130 -39 20 -56 20 -1172 20 -1108 -1 -1134 -1 -1170 -21z"/>
<path d="M688 1779 c-43 -22 -78 -81 -78 -129 0 -50 35 -107 80 -130 39 -20
56 -20 1170 -20 1114 0 1131 0 1170 20 45 23 80 80 80 130 0 50 -35 107 -80
130 -39 20 -56 20 -1172 20 -1108 -1 -1134 -1 -1170 -21z"/>
<path d="M688 1179 c-43 -22 -78 -81 -78 -129 0 -50 35 -107 80 -130 39 -20
56 -20 1170 -20 1114 0 1131 0 1170 20 45 23 80 80 80 130 0 50 -35 107 -80
130 -39 20 -56 20 -1172 20 -1108 -1 -1134 -1 -1170 -21z"/>
</g>
</svg>
