<svg width="63" height="44" viewBox="0 0 63 44" fill="none" xmlns="http://www.w3.org/2000/svg">
<path fill-rule="evenodd" clip-rule="evenodd" d="M14.7873 6.59601L17.2228 6.64197L11.834 24.3366C12.5774 24.5204 13.2799 24.74 13.9413 24.9902C13.2901 24.7451 12.6031 24.5306 11.875 24.3468C7.14755 23.2897 3.2405 24.8319 0 28.4985L4.03524 30.3931L21.176 38.4463C21.3094 37.3994 21.3709 36.4189 21.3504 35.4946C21.3555 35.6274 21.3658 35.7653 21.3658 35.9032H41.0395C41.0446 40.1059 44.4697 43.507 48.6895 43.507C52.9093 43.507 56.3344 40.1008 56.3395 35.9032H62.7795C63.2256 27.1861 59.0929 20.481 51.8531 19.8376H61.5951C62.3693 19.8376 63 19.2044 63 18.4384V16.9013C63 16.1404 62.3745 15.5225 61.6156 15.5225H61.4926V4.99251C61.4926 4.30311 60.9234 3.73627 60.2312 3.73627H42.0803C41.3881 3.73627 40.819 4.30311 40.819 4.99251V15.5174H31.8461C30.8975 15.4867 30.3951 15.9157 30.3899 16.8604V19.8427V21.7934C34.4303 24.9596 35.0456 29.9079 31.359 32.6962H25.3805C25.2267 27.9521 22.504 25.0617 17.9817 21.8649L20.6787 13.587C21.7913 11.0133 21.0581 9.06253 19.4327 7.69905C19.9403 6.07513 20.3044 4.68611 20.1916 3.55243L23.0168 4.13459C23.9346 4.32354 24.1704 4.65037 24.4678 3.76691C24.5191 3.61371 24.5601 3.46562 24.5857 3.31242C24.8165 2.10214 24.6729 2.18385 23.6885 1.9949L20.6736 1.41274H19.7763L18.6688 0.794836C18.0073 0.416943 17.3203 0.192249 16.6178 0.100329L15.6487 0.0390494C14.654 0.0390494 13.5363 -0.23671 12.962 0.677383C12.9517 0.692703 12.9466 0.748876 12.9415 0.830582C12.5364 0.968462 12.1878 1.26976 11.9263 1.6834C11.6032 2.18385 11.4084 2.86814 11.4084 3.61371C11.4084 4.35929 11.6084 5.04358 11.9263 5.54403C12.2852 6.10577 12.803 6.46323 13.3978 6.47855C13.7414 6.72367 14.2849 6.58579 14.7873 6.59601ZM52.8786 12.438H59.2673V13.5564H52.8786V12.438ZM48.023 4.83421H52.6376V9.82853L50.2175 7.95949L48.023 9.82853V4.83421ZM52.8786 15.3488H59.2673V16.4672H52.8786V15.3488ZM4.05575 30.4084L10.8752 33.6256L8.66013 32.6145C7.1373 32.9362 5.99902 34.2843 5.99902 35.8929C5.99902 37.7467 7.50647 39.248 9.36771 39.248C11.2289 39.248 12.7364 37.7467 12.7364 35.8929C12.7364 35.321 12.5928 34.7848 12.3416 34.3099L16.9972 36.5057C16.6845 40.4277 13.3876 43.5121 9.37283 43.5121C5.14788 43.5121 1.7228 40.1008 1.7228 35.8929C1.71254 33.7379 2.60983 31.7923 4.05575 30.4084ZM12.9569 2.13789C12.9876 3.11837 13.0543 4.37971 13.1004 5.22742C13.0184 5.15593 12.9364 5.06401 12.8646 4.94655C12.6492 4.61462 12.521 4.1397 12.521 3.60861C12.521 3.07751 12.6544 2.6026 12.8646 2.27066C12.8953 2.2247 12.9261 2.17874 12.9569 2.13789ZM45.326 35.9032H52.0633C52.0582 37.7518 50.5507 39.2429 48.6946 39.2429C46.8385 39.2429 45.3311 37.7518 45.326 35.9032Z" fill="black"/>
</svg>
