<?xml version="1.0" standalone="no"?>
<!DOCTYPE svg PUBLIC "-//W3C//DTD SVG 20010904//EN"
 "http://www.w3.org/TR/2001/REC-SVG-20010904/DTD/svg10.dtd">
<svg version="1.0" xmlns="http://www.w3.org/2000/svg"
 width="512.000000pt" height="512.000000pt" viewBox="0 0 512.000000 512.000000"
 preserveAspectRatio="xMidYMid meet">

<g transform="translate(0.000000,512.000000) scale(0.100000,-0.100000)"
fill="#000000" stroke="none">
<path d="M2338 5105 c-626 -86 -1155 -518 -1361 -1112 -103 -295 -120 -602
-51 -911 87 -386 323 -830 655 -1228 l68 -81 -87 -17 c-561 -110 -981 -315
-1140 -560 -101 -156 -109 -341 -20 -508 180 -339 812 -589 1693 -670 183 -17
747 -17 930 0 520 48 948 151 1253 302 278 138 431 290 487 484 23 78 16 208
-14 287 -112 295 -534 533 -1163 657 -86 17 -136 31 -134 38 2 6 42 58 88 115
364 453 585 909 644 1327 12 85 15 159 11 272 -8 254 -57 452 -166 675 -98
199 -196 331 -364 491 -355 337 -857 503 -1329 439z m465 -434 c428 -98 784
-424 917 -839 49 -153 63 -256 57 -427 -9 -234 -55 -400 -182 -660 -153 -311
-391 -629 -724 -963 -142 -143 -315 -302 -329 -302 -14 0 -253 223 -387 361
-608 629 -904 1237 -846 1736 64 545 460 983 991 1097 114 24 125 25 275 21
91 -3 171 -11 228 -24z m-716 -3351 c127 -121 334 -291 373 -308 46 -19 130
-18 171 4 44 22 204 154 344 283 l110 102 65 -6 c109 -10 361 -54 486 -85 409
-99 724 -269 724 -390 0 -30 -9 -43 -65 -96 -146 -140 -497 -270 -925 -343
-260 -44 -427 -56 -810 -56 -383 0 -550 12 -810 56 -428 73 -779 203 -925 343
-56 53 -65 66 -65 96 0 136 377 322 845 416 109 23 335 59 384 63 7 1 51 -35
98 -79z"/>
<path d="M2420 4424 c-309 -60 -550 -253 -661 -529 -49 -123 -61 -201 -56
-355 3 -119 8 -147 36 -230 45 -135 110 -239 211 -340 101 -101 205 -166 340
-211 166 -55 384 -53 551 7 214 77 387 234 485 439 67 141 79 196 79 370 0
175 -12 231 -80 372 -83 170 -205 297 -377 387 -125 67 -208 87 -368 91 -74 2
-146 1 -160 -1z m272 -433 c185 -64 298 -223 298 -421 0 -218 -158 -399 -374
-429 -290 -40 -535 207 -495 498 23 160 134 295 289 351 75 26 206 27 282 1z"/>
</g>
</svg>
