<?xml version="1.0" standalone="no"?>
<!DOCTYPE svg PUBLIC "-//W3C//DTD SVG 20010904//EN"
 "http://www.w3.org/TR/2001/REC-SVG-20010904/DTD/svg10.dtd">
<svg version="1.0" xmlns="http://www.w3.org/2000/svg"
 width="1920.000000pt" height="1597.000000pt" viewBox="0 0 1920.000000 1597.000000"
 preserveAspectRatio="xMidYMid meet">

<g transform="translate(0.000000,1597.000000) scale(0.100000,-0.100000)"
fill="#000000" stroke="none">
<path d="M14620 13519 c-116 -23 -238 -117 -290 -225 -13 -25 -97 -344 -187
-708 -90 -363 -168 -678 -174 -698 l-10 -38 -4882 0 c-4352 0 -4889 -2 -4942
-15 -134 -35 -245 -123 -299 -235 -29 -61 -31 -72 -30 -175 1 -108 6 -133 271
-1255 149 -630 412 -1743 583 -2475 225 -955 321 -1347 341 -1391 53 -114 149
-197 270 -235 59 -19 156 -19 3655 -19 l3594 0 -7 -27 c-3 -16 -77 -311 -162
-658 l-156 -630 -3375 -5 -3375 -5 -56 -28 c-71 -35 -132 -100 -171 -184 -41
-86 -50 -219 -23 -319 30 -112 113 -213 211 -256 21 -10 145 -14 472 -18 l443
-5 -64 -42 c-142 -94 -263 -257 -317 -428 -31 -98 -38 -264 -16 -371 65 -321
312 -563 631 -619 109 -19 160 -19 266 0 251 44 453 194 564 420 57 115 76
185 82 310 8 161 -27 304 -108 442 -46 78 -159 195 -236 246 l-64 42 1080 3
c594 1 1569 1 2167 0 l1088 -3 -67 -44 c-226 -147 -362 -422 -344 -696 34
-495 497 -829 981 -705 251 64 455 258 542 515 36 108 45 285 19 401 -45 203
-160 373 -332 489 l-68 45 236 0 c196 0 246 3 289 17 72 23 154 101 202 189
40 74 -18 -151 958 3779 187 754 469 1888 626 2520 157 633 344 1386 415 1675
71 289 134 542 140 563 l10 37 888 0 c976 0 943 -2 1043 61 256 163 260 529 9
697 -112 75 -68 72 -1238 71 -571 -1 -1058 -5 -1083 -10z m-8204 -2669 c104
-918 164 -1457 164 -1467 0 -10 -147 -13 -703 -13 l-703 0 -196 833 c-108 457
-194 835 -191 840 2 4 365 6 806 5 l801 -3 22 -195z m2406 -632 c3 -458 4
-836 1 -840 -2 -5 -319 -8 -703 -8 l-699 0 -6 33 c-3 17 -32 273 -65 567 -33
294 -73 656 -90 803 -16 148 -30 270 -30 273 0 2 357 4 794 4 l793 0 5 -832z
m2408 810 c0 -13 -25 -223 -55 -468 -91 -733 -145 -1170 -145 -1181 0 -5 -260
-9 -683 -9 l-684 0 -6 182 c-4 99 -7 477 -7 840 l0 658 790 0 790 0 0 -22z
m2530 15 c-1 -5 -94 -381 -208 -838 l-207 -830 -737 -3 -738 -2 0 24 c0 14 45
388 100 833 55 444 100 811 100 816 0 4 380 7 845 7 465 0 845 -3 845 -7z
m-7080 -2522 c0 -11 41 -379 90 -818 50 -439 90 -803 90 -810 0 -10 -113 -13
-549 -13 -515 0 -550 1 -555 18 -3 9 -89 373 -190 807 -102 435 -188 800 -191
813 l-5 22 655 0 c641 0 655 0 655 -19z m2150 -811 l0 -830 -565 0 -565 0 -4
23 c-3 12 -7 47 -11 77 -11 110 -165 1486 -170 1523 l-5 37 660 0 660 0 0
-830z m2090 809 c0 -19 -168 -1387 -191 -1556 l-11 -83 -529 0 -529 0 0 830 0
830 630 0 c629 0 630 0 630 -21z m2214 4 c-2 -10 -71 -288 -153 -618 -82 -330
-173 -696 -201 -812 l-52 -213 -584 0 c-531 0 -584 1 -584 16 0 9 45 380 100
825 55 445 100 811 100 814 0 3 310 5 689 5 651 0 689 -1 685 -17z"/>
</g>
</svg>
